<svg id="Layer_1" data-name="Layer 1" xmlns="http://www.w3.org/2000/svg" viewBox="0 0 144.16 107.59"><defs><style>.cls-1{fill:#fff;stroke:#231f20;stroke-miterlimit:10;stroke-width:3px;}</style></defs><path class="cls-1" d="M78.84,194.18c8.82-8.52,41.64-8.53,48.81,0s31.13,9.94,45.73,0c9.39-6.39,38.33-6.39,47.78-.43" transform="translate(-77.8 -95.03)"/><path class="cls-1" d="M78.84,184.78c8.82-8.52,41.64-8.53,48.81,0s31.13,9.93,45.73,0c9.39-6.4,38.33-6.4,47.78-.43" transform="translate(-77.8 -95.03)"/><path class="cls-1" d="M78.84,173.11c15.81-2.12,44.75,1.06,54.28-40.94s46.94-37.77,53.29-32.12,11.65,15.18,1.06,21.88-8.47,2.12-11.29-2.47-11.74-1.94-12.36,5.29c0,0-7.41,39.89,27.18,41.65s24.32.35,30.16-.35" transform="translate(-77.8 -95.03)"/></svg>